<svg preserveAspectRatio="none" width="100%" height="100%" overflow="visible" style="display: block;" viewBox="0 0 15 14.5" fill="none" xmlns="http://www.w3.org/2000/svg">
<path id="Extension" fill-rule="evenodd" clip-rule="evenodd" d="M7.5 2.5H10C11.1046 2.5 12 3.39543 12 4.5V7H13.5C14.3284 7 15 7.67157 15 8.5C15 9.32843 14.3284 10 13.5 10H12V12.5C12 13.6046 11.1046 14.5 10 14.5H7.5V13C7.5 12.1716 6.82843 11.5 6 11.5C5.17157 11.5 4.5 12.1716 4.5 13V14.5H2C0.895431 14.5 0 13.6046 0 12.5V10H1.5C2.32843 10 3 9.32843 3 8.5C3 7.67157 2.32843 7 1.5 7H0V4.5C0 3.39543 0.895431 2.5 2 2.5H4.5V1.5C4.5 0.671573 5.17157 0 6 0C6.82843 0 7.5 0.671573 7.5 1.5V2.5Z" fill="var(--fill-0, #C4C4C4)"/>
</svg>
