<svg preserveAspectRatio="none" width="100%" height="100%" overflow="visible" style="display: block;" viewBox="0 0 13.5123 12.9152" fill="none" xmlns="http://www.w3.org/2000/svg">
<path id="Star" fill-rule="evenodd" clip-rule="evenodd" d="M6.13798 0.449139C6.33256 -0.149712 7.17978 -0.149714 7.37436 0.449139L8.6696 4.43549H12.8611C13.4908 4.43549 13.7526 5.24125 13.2432 5.61135L9.85217 8.07505L11.1474 12.0614C11.342 12.6602 10.6566 13.1582 10.1472 12.7881L6.75617 10.3244L3.36518 12.7881C2.85577 13.1582 2.17035 12.6602 2.36493 12.0614L3.66018 8.07505L0.269185 5.61135C-0.240227 5.24124 0.0215741 4.43549 0.651246 4.43549H4.84274L6.13798 0.449139ZM6.75617 2.59164L5.89685 5.23635C5.80983 5.50417 5.56026 5.68549 5.27867 5.68549H2.49786L4.74758 7.32001C4.9754 7.48553 5.07072 7.77892 4.98371 8.04673L4.12439 10.6914L6.37411 9.05692C6.60193 8.8914 6.91042 8.8914 7.13823 9.05692L9.38795 10.6914L8.52864 8.04673C8.44162 7.77891 8.53695 7.48553 8.76476 7.32001L11.0145 5.68549H8.23368C7.95208 5.68549 7.70251 5.50416 7.61549 5.23635L6.75617 2.59164Z" fill="var(--fill-0, #BDBDBE)"/>
</svg>
