<svg preserveAspectRatio="none" width="100%" height="100%" overflow="visible" style="display: block;" viewBox="0 0 11.25 14.25" fill="none" xmlns="http://www.w3.org/2000/svg">
<path id="Share" fill-rule="evenodd" clip-rule="evenodd" d="M6.06694 0.183058C5.82286 -0.0610194 5.42714 -0.0610194 5.18306 0.183058L3.18306 2.18306C2.93898 2.42714 2.93898 2.82286 3.18306 3.06694C3.42714 3.31102 3.82286 3.31102 4.06694 3.06694L5 2.13388V8.625C5 8.97018 5.27982 9.25 5.625 9.25C5.97018 9.25 6.25 8.97018 6.25 8.625V2.13388L7.18306 3.06694C7.42714 3.31102 7.82286 3.31102 8.06694 3.06694C8.31102 2.82286 8.31102 2.42714 8.06694 2.18306L6.06694 0.183058ZM1.25 6.125C1.25 5.64175 1.64175 5.25 2.125 5.25H3.125C3.47018 5.25 3.75 4.97018 3.75 4.625C3.75 4.27982 3.47018 4 3.125 4H2.125C0.951395 4 0 4.9514 0 6.125V12.125C0 13.2986 0.951395 14.25 2.125 14.25H9.125C10.2986 14.25 11.25 13.2986 11.25 12.125V6.125C11.25 4.9514 10.2986 4 9.125 4H8.125C7.77982 4 7.5 4.27982 7.5 4.625C7.5 4.97018 7.77982 5.25 8.125 5.25H9.125C9.60825 5.25 10 5.64175 10 6.125V12.125C10 12.6082 9.60825 13 9.125 13H2.125C1.64175 13 1.25 12.6082 1.25 12.125V6.125Z" fill="var(--fill-0, #BDBDBE)"/>
</svg>
