<svg preserveAspectRatio="none" width="100%" height="100%" overflow="visible" style="display: block;" viewBox="0 0 13.25 12.5" fill="none" xmlns="http://www.w3.org/2000/svg">
<path id="Refresh" fill-rule="evenodd" clip-rule="evenodd" d="M6.25 0C2.79822 0 0 2.79822 0 6.25C0 9.70178 2.79822 12.5 6.25 12.5C8.67978 12.5 10.7848 11.1135 11.8184 9.0918C12.0069 8.72298 11.86 8.27057 11.4912 8.08203C11.1226 7.89388 10.671 8.03975 10.4824 8.4082C9.69526 9.94806 8.09481 11 6.25 11C3.62665 11 1.5 8.87335 1.5 6.25C1.5 3.62665 3.62665 1.5 6.25 1.5C7.81592 1.5 9.20586 2.25779 10.0716 3.4284L8.25 5.25H13.25V0.25L11.1411 2.35891C9.99646 0.922115 8.23132 0 6.25 0Z" fill="var(--fill-0, #606367)"/>
</svg>
