<svg preserveAspectRatio="none" width="100%" height="100%" overflow="visible" style="display: block;" viewBox="0 0 12.8906 12.8906" fill="none" xmlns="http://www.w3.org/2000/svg">
<path id="plus" d="M0 6.44531C0 6.82812 0.320312 7.14062 0.695312 7.14062H5.75V12.1953C5.75 12.5703 6.0625 12.8906 6.44531 12.8906C6.82812 12.8906 7.14844 12.5703 7.14844 12.1953V7.14062H12.1953C12.5703 7.14062 12.8906 6.82812 12.8906 6.44531C12.8906 6.0625 12.5703 5.74219 12.1953 5.74219H7.14844V0.695312C7.14844 0.320312 6.82812 0 6.44531 0C6.0625 0 5.75 0.320312 5.75 0.695312V5.74219H0.695312C0.320312 5.74219 0 6.0625 0 6.44531Z" fill="var(--fill-0, black)" fill-opacity="0.6"/>
</svg>
