<svg preserveAspectRatio="none" width="100%" height="100%" overflow="visible" style="display: block;" viewBox="0 0 3 13.5" fill="none" xmlns="http://www.w3.org/2000/svg">
<path id="More" fill-rule="evenodd" clip-rule="evenodd" d="M3 1.5C3 2.32843 2.32843 3 1.5 3C0.671573 3 0 2.32843 0 1.5C0 0.671573 0.671573 0 1.5 0C2.32843 0 3 0.671573 3 1.5ZM3 6.75C3 7.57843 2.32843 8.25 1.5 8.25C0.671573 8.25 0 7.57843 0 6.75C0 5.92157 0.671573 5.25 1.5 5.25C2.32843 5.25 3 5.92157 3 6.75ZM1.5 13.5C2.32843 13.5 3 12.8284 3 12C3 11.1716 2.32843 10.5 1.5 10.5C0.671573 10.5 0 11.1716 0 12C0 12.8284 0.671573 13.5 1.5 13.5Z" fill="var(--fill-0, #C4C4C4)"/>
</svg>
