<svg preserveAspectRatio="none" width="100%" height="100%" overflow="visible" style="display: block;" viewBox="0 0 13.8672 17.6328" fill="none" xmlns="http://www.w3.org/2000/svg">
<path id="square.and.arrow.up" d="M6.92969 11.5156C7.26562 11.5156 7.55469 11.2344 7.55469 10.9062V2.88281L7.50781 1.71094L8.03125 2.26562L9.21875 3.53125C9.32812 3.65625 9.48438 3.71875 9.64062 3.71875C9.96094 3.71875 10.2109 3.48438 10.2109 3.16406C10.2109 3 10.1406 2.875 10.0234 2.75781L7.38281 0.210938C7.22656 0.0546875 7.09375 0 6.92969 0C6.77344 0 6.64062 0.0546875 6.47656 0.210938L3.83594 2.75781C3.71875 2.875 3.65625 3 3.65625 3.16406C3.65625 3.48438 3.89062 3.71875 4.21875 3.71875C4.36719 3.71875 4.53906 3.65625 4.64844 3.53125L5.82812 2.26562L6.35938 1.71094L6.3125 2.88281V10.9062C6.3125 11.2344 6.59375 11.5156 6.92969 11.5156ZM2.45312 17.6328H11.4141C13.0469 17.6328 13.8672 16.8203 13.8672 15.2109V7.41406C13.8672 5.80469 13.0469 4.99219 11.4141 4.99219H9.23438V6.25H11.3906C12.1641 6.25 12.6094 6.67188 12.6094 7.48438V15.1406C12.6094 15.9531 12.1641 16.375 11.3906 16.375H2.46875C1.6875 16.375 1.25781 15.9531 1.25781 15.1406V7.48438C1.25781 6.67188 1.6875 6.25 2.46875 6.25H4.63281V4.99219H2.45312C0.820312 4.99219 0 5.80469 0 7.41406V15.2109C0 16.8203 0.820312 17.6328 2.45312 17.6328Z" fill="var(--fill-0, black)" fill-opacity="0.6"/>
</svg>
