<svg preserveAspectRatio="none" width="100%" height="100%" overflow="visible" style="display: block;" viewBox="0 0 14.3828 14.3828" fill="none" xmlns="http://www.w3.org/2000/svg">
<path id="square.grid.2x2" d="M1.49219 6.54688H5.05469C6.04688 6.54688 6.54688 6.04688 6.54688 5.01562V1.52344C6.54688 0.492188 6.04688 0 5.05469 0H1.49219C0.5 0 0 0.492188 0 1.52344V5.01562C0 6.04688 0.5 6.54688 1.49219 6.54688ZM9.33594 6.54688H12.8906C13.8828 6.54688 14.3828 6.04688 14.3828 5.01562V1.52344C14.3828 0.492188 13.8828 0 12.8906 0H9.33594C8.33594 0 7.83594 0.492188 7.83594 1.52344V5.01562C7.83594 6.04688 8.33594 6.54688 9.33594 6.54688ZM1.50781 5.44531C1.23438 5.44531 1.10156 5.30469 1.10156 5.01562V1.52344C1.10156 1.24219 1.23438 1.10156 1.50781 1.10156H5.03125C5.30469 1.10156 5.44531 1.24219 5.44531 1.52344V5.01562C5.44531 5.30469 5.30469 5.44531 5.03125 5.44531H1.50781ZM9.35156 5.44531C9.07031 5.44531 8.9375 5.30469 8.9375 5.01562V1.52344C8.9375 1.24219 9.07031 1.10156 9.35156 1.10156H12.875C13.1484 1.10156 13.2812 1.24219 13.2812 1.52344V5.01562C13.2812 5.30469 13.1484 5.44531 12.875 5.44531H9.35156ZM1.49219 14.3828H5.05469C6.04688 14.3828 6.54688 13.8906 6.54688 12.8594V9.35938C6.54688 8.33594 6.04688 7.83594 5.05469 7.83594H1.49219C0.5 7.83594 0 8.33594 0 9.35938V12.8594C0 13.8906 0.5 14.3828 1.49219 14.3828ZM9.33594 14.3828H12.8906C13.8828 14.3828 14.3828 13.8906 14.3828 12.8594V9.35938C14.3828 8.33594 13.8828 7.83594 12.8906 7.83594H9.33594C8.33594 7.83594 7.83594 8.33594 7.83594 9.35938V12.8594C7.83594 13.8906 8.33594 14.3828 9.33594 14.3828ZM1.50781 13.2812C1.23438 13.2812 1.10156 13.1406 1.10156 12.8594V9.36719C1.10156 9.07812 1.23438 8.9375 1.50781 8.9375H5.03125C5.30469 8.9375 5.44531 9.07812 5.44531 9.36719V12.8594C5.44531 13.1406 5.30469 13.2812 5.03125 13.2812H1.50781ZM9.35156 13.2812C9.07031 13.2812 8.9375 13.1406 8.9375 12.8594V9.36719C8.9375 9.07812 9.07031 8.9375 9.35156 8.9375H12.875C13.1484 8.9375 13.2812 9.07812 13.2812 9.36719V12.8594C13.2812 13.1406 13.1484 13.2812 12.875 13.2812H9.35156Z" fill="var(--fill-0, white)" fill-opacity="0.7"/>
</svg>
