<svg preserveAspectRatio="none" width="100%" height="100%" overflow="visible" style="display: block;" viewBox="0 0 12.9844 15.7812" fill="none" xmlns="http://www.w3.org/2000/svg">
<path id="shield.lefthalf.filled" d="M0 9.22656C0 12.0781 1.53125 13.125 5.96875 15.625C6.17188 15.7344 6.36719 15.7812 6.49219 15.7812C6.61719 15.7812 6.82031 15.7344 7.01562 15.625C11.4609 13.1328 12.9844 12.0781 12.9844 9.22656V3.25C12.9844 2.42969 12.6328 2.17188 11.9688 1.89062C11.0469 1.50781 8.07031 0.4375 7.14844 0.117188C6.9375 0.046875 6.71094 0 6.49219 0C6.27344 0 6.04688 0.0625 5.84375 0.117188C4.92188 0.382812 1.9375 1.51562 1.01562 1.89062C0.359375 2.16406 0 2.42969 0 3.25V9.22656ZM6.65625 14.3359V1.28125C6.69531 1.28906 6.74219 1.30469 6.80469 1.32812C7.98438 1.79688 10.2734 2.625 11.4844 3.03906C11.6953 3.11719 11.7422 3.22656 11.7422 3.49219V8.9375C11.7422 11.3516 10.5859 11.9844 6.97656 14.1797C6.85938 14.2578 6.75 14.3125 6.65625 14.3359Z" fill="var(--fill-0, black)" fill-opacity="0.6"/>
</svg>
