<svg preserveAspectRatio="none" width="100%" height="100%" overflow="visible" style="display: block;" viewBox="0 0 11.2163 13.6665" fill="none" xmlns="http://www.w3.org/2000/svg">
<path id="arrow.clockwise" d="M0 8.04883C0 11.1655 2.50098 13.6665 5.61133 13.6665C8.72168 13.6665 11.2163 11.1655 11.2163 8.04883C11.2163 7.74414 11.0005 7.52197 10.6895 7.52197C10.3911 7.52197 10.1943 7.74414 10.1943 8.04883C10.1943 10.6006 8.15674 12.6445 5.61133 12.6445C3.06592 12.6445 1.02197 10.6006 1.02197 8.04883C1.02197 5.50342 3.06592 3.46582 5.61133 3.46582C6.09375 3.46582 6.54443 3.50391 6.91895 3.59277L5.021 5.47168C4.92578 5.57324 4.875 5.7002 4.875 5.8335C4.875 6.12549 5.09082 6.34131 5.37646 6.34131C5.53516 6.34131 5.65576 6.29053 5.74463 6.19531L8.35986 3.56738C8.47412 3.45947 8.51855 3.33252 8.51855 3.18652C8.51855 3.04688 8.46143 2.90723 8.35986 2.80566L5.74463 0.152344C5.65576 0.0507812 5.52881 0 5.37646 0C5.09082 0 4.875 0.228516 4.875 0.520508C4.875 0.653809 4.92578 0.780762 5.01465 0.882324L6.70312 2.55176C6.37305 2.48828 5.99854 2.44385 5.61133 2.44385C2.50098 2.44385 0 4.93848 0 8.04883Z" fill="var(--fill-0, white)" fill-opacity="0.7"/>
</svg>
