<svg preserveAspectRatio="none" width="100%" height="100%" overflow="visible" style="display: block;" viewBox="0 0 7.64062 13.5625" fill="none" xmlns="http://www.w3.org/2000/svg">
<path id="chevron.left" d="M0 6.78125C0 6.97656 0.0703125 7.14844 0.21875 7.29688L6.41406 13.3516C6.54688 13.4922 6.71875 13.5625 6.92188 13.5625C7.32812 13.5625 7.64062 13.2578 7.64062 12.8516C7.64062 12.6484 7.55469 12.4766 7.42969 12.3438L1.74219 6.78125L7.42969 1.21875C7.55469 1.08594 7.64062 0.90625 7.64062 0.710938C7.64062 0.304688 7.32812 0 6.92188 0C6.71875 0 6.54688 0.0703125 6.41406 0.203125L0.21875 6.26562C0.0703125 6.40625 0 6.58594 0 6.78125Z" fill="var(--fill-0, white)" fill-opacity="0.7"/>
</svg>
