<svg preserveAspectRatio="none" width="100%" height="100%" overflow="visible" style="display: block;" viewBox="0 0 18.4219 14.3828" fill="none" xmlns="http://www.w3.org/2000/svg">
<path id="sidebar.leading" d="M2.45312 14.3828H15.9688C17.6094 14.3828 18.4219 13.5703 18.4219 11.9609V2.42188C18.4219 0.8125 17.6094 0 15.9688 0H2.45312C0.820312 0 0 0.804688 0 2.42188V11.9609C0 13.5781 0.820312 14.3828 2.45312 14.3828ZM2.46875 13.125C1.6875 13.125 1.25781 12.7109 1.25781 11.8984V2.48438C1.25781 1.67188 1.6875 1.25781 2.46875 1.25781H5.95312V13.125H2.46875ZM15.9531 1.25781C16.7266 1.25781 17.1641 1.67188 17.1641 2.48438V11.8984C17.1641 12.7109 16.7266 13.125 15.9531 13.125H7.17969V1.25781H15.9531ZM4.45312 4.15625C4.6875 4.15625 4.89844 3.94531 4.89844 3.71875C4.89844 3.48438 4.6875 3.28125 4.45312 3.28125H2.77344C2.53906 3.28125 2.33594 3.48438 2.33594 3.71875C2.33594 3.94531 2.53906 4.15625 2.77344 4.15625H4.45312ZM4.45312 6.17969C4.6875 6.17969 4.89844 5.96875 4.89844 5.73438C4.89844 5.5 4.6875 5.30469 4.45312 5.30469H2.77344C2.53906 5.30469 2.33594 5.5 2.33594 5.73438C2.33594 5.96875 2.53906 6.17969 2.77344 6.17969H4.45312ZM4.45312 8.19531C4.6875 8.19531 4.89844 8 4.89844 7.76562C4.89844 7.53125 4.6875 7.32812 4.45312 7.32812H2.77344C2.53906 7.32812 2.33594 7.53125 2.33594 7.76562C2.33594 8 2.53906 8.19531 2.77344 8.19531H4.45312Z" fill="var(--fill-0, white)" fill-opacity="0.7"/>
</svg>
